    <!-- SVG Sprite -->
<svg width="0" height="0" class="hidden">
  <symbol xmlns="http://www.w3.org/2000/svg" viewBox="0 0 16.414 16.414" id="cerrarsesion">
    <path d="M1.414 6.414h9a5 5 0 0 1 5 5v4m-14-9l5-5m-5 5l5 5" fill="none" stroke="#f5138d" stroke-linecap="round" stroke-linejoin="round" stroke-width="2"></path>
  </symbol>
  <symbol xmlns="http://www.w3.org/2000/svg" viewBox="0 0 20 18.5" id="contacto">
    <path d="M5 6h10M5 9h6M3.5 1h13A2.5 2.5 0 0 1 19 3.5v8a2.5 2.5 0 0 1-2.5 2.5H9l-3.983 3.486A.01.01 0 0 1 5 17.478V14H3.5A2.5 2.5 0 0 1 1 11.5v-8A2.5 2.5 0 0 1 3.5 1z" fill="none"  stroke-linecap="round" stroke-width="2"></path>
  </symbol>  
  <symbol viewBox="0 0 413.348 413.348" xmlns="http://www.w3.org/2000/svg" id="close">
    <path d="M413.348 24.354L388.994 0l-182.32 182.32L24.354 0 0 24.354l182.32 182.32L0 388.994l24.354 24.354 182.32-182.32 182.32 182.32 24.354-24.354-182.32-182.32z" fill="#707070" stroke-width="2" stroke="#707070"></path>
  </symbol>
  <symbol xmlns="http://www.w3.org/2000/svg" viewBox="0 0 20 20" id="gallery">
    <path fill="none" stroke-linecap="round" stroke-width="2" d="M3 4h14M5 1h10M3 19h14a2 2 0 0 0 2-2V9a2 2 0 0 0-2-2H3a2 2 0 0 0-2 2v8a2 2 0 0 0 2 2z"></path>
  </symbol>
  <symbol xmlns="http://www.w3.org/2000/svg" viewBox="0 0 24 24" id="transacciones">
    <path id="Trazado_2315" d="M12.88 2a10.88 10.88 0 1 0 10.88 10.88A10.88 10.88 0 0 0 12.88 2zm0 20.127a9.248 9.248 0 1 1 9.248-9.248 9.248 9.248 0 0 1-9.248 9.248z" class="cls-2" data-name="Trazado 2315" transform="translate(-2 -2)"/>
    <path id="Trazado_2316" d="M15.888 11.624h-2.72V9.63h2.448V8h-2.448V7h-1.632v1h-2.72A.816.816 0 0 0 8 8.814v3.626a.816.816 0 0 0 .816.816h2.72v1.994H9.088v1.632h2.448v1h1.632v-1h2.72a.816.816 0 0 0 .816-.816V12.44a.816.816 0 0 0-.816-.816zm-4.352 0h-1.9V9.63h1.9zm3.536 3.626h-1.9v-1.994h1.9z" class="cls-2" data-name="Trazado 2316" transform="translate(-1.472 -1.56)"/>
  </symbol>
  <symbol xmlns="http://www.w3.org/2000/svg" viewBox="0 0 24 24" id="usuarios">
    <path id="Trazado_2355" d="M19.531 6.443a.75.75 0 0 0-1.156.955 9.328 9.328 0 0 1 2.125 5.924.75.75 0 1 0 1.5 0 10.831 10.831 0 0 0-2.469-6.879z" class="cls-3" data-name="Trazado 2355"/>
    <path id="Trazado_2356" d="M4.891 6.452a8.568 8.568 0 0 1 1.646-1.2 8.651 8.651 0 0 1 1.633-.745 7.565 7.565 0 0 1 1.518-.372 8.428 8.428 0 0 1 1.5-.129 9.306 9.306 0 0 1 4.658 1.246.751.751 0 0 0 .752-1.3 10.825 10.825 0 0 0-5.41-1.447 9.663 9.663 0 0 0-1.731.148 8.768 8.768 0 0 0-1.771.435 9.941 9.941 0 0 0-1.892.862 10.15 10.15 0 0 0-1.913 1.4A10.613 10.613 0 0 0 2.12 7.419a.75.75 0 0 0 1.26.814 9.075 9.075 0 0 1 1.511-1.781z" class="cls-3" data-name="Trazado 2356"/>
    <path id="Trazado_2357" d="M11.184 12.572a.75.75 0 0 0-.75.75 9.141 9.141 0 0 1-.575 3.216 9.21 9.21 0 0 1-1.55 2.706.75.75 0 1 0 1.158.953 10.689 10.689 0 0 0 1.8-3.141 10.628 10.628 0 0 0 .668-3.734.75.75 0 0 0-.751-.75z" class="cls-3" data-name="Trazado 2357"/>
    <path id="Trazado_2358" d="M7.647 12.572a.75.75 0 0 0-.75.75 9.367 9.367 0 0 1-.6 3.294 9.292 9.292 0 0 1-.542 1.184.75.75 0 1 0 1.316.719 10.639 10.639 0 0 0 .629-1.377 10.836 10.836 0 0 0 .689-3.82.75.75 0 0 0-.746-.75z" class="cls-3" data-name="Trazado 2358"/>
    <path id="Trazado_2359" d="M11.184 5.769a7.55 7.55 0 0 0-7.551 7.552 9.362 9.362 0 0 1-.4 2.7.749.749 0 0 0 .5.935.729.729 0 0 0 .217.032.75.75 0 0 0 .718-.533 10.842 10.842 0 0 0 .461-3.136 6.05 6.05 0 1 1 12.1 0 9.28 9.28 0 0 1-.6 3.289.75.75 0 0 0 .437.967.762.762 0 0 0 .265.048.749.749 0 0 0 .7-.485 10.765 10.765 0 0 0 .693-3.818 7.56 7.56 0 0 0-7.54-7.55z" class="cls-3" data-name="Trazado 2359"/>
    <path id="Trazado_2360" d="M11.184 9.033A4.29 4.29 0 0 0 8.4 10.061a.75.75 0 0 0 .974 1.139 2.787 2.787 0 0 1 4.6 2.119 9.266 9.266 0 0 1-1.384 4.9.749.749 0 0 0 .241 1.032.74.74 0 0 0 .4.113.749.749 0 0 0 .633-.364 10.759 10.759 0 0 0 1.61-5.686 4.292 4.292 0 0 0-4.29-4.286z" class="cls-3" data-name="Trazado 2360"/>
  </symbol>
  <symbol xmlns="http://www.w3.org/2000/svg" viewBox="0 0 24 24" id="pdv">
    <path id="Trazado_2412" d="M21.64 9l-9.25-6.43a.747.747 0 0 0-.78 0L2.36 9a.769.769 0 0 0-.36.69v2.77a.755.755 0 0 0 .75.75 1.1 1.1 0 0 1 1.1 1.1v6.48a.769.769 0 0 0 .75.75h14.8a.769.769 0 0 0 .75-.75v-6.48a1.1 1.1 0 0 1 1.1-1.1.755.755 0 0 0 .75-.75V9.69a.769.769 0 0 0-.36-.69zm-1.14 2.82a2.6 2.6 0 0 0-1.85 2.49v5.73h-5.9V17h-1.5v3.04h-5.9v-5.73a2.6 2.6 0 0 0-1.85-2.49v-1.79L12 4.12l8.5 5.91z" data-name="Trazado 2412" transform="translate(-1.999 -2.46)"/>
  </symbol>
  <symbol xmlns="http://www.w3.org/2000/svg" viewBox="0 0 24 24" id="prestamos">
    <path id="Trazado_2560" d="M18.538 5.83h1.572v-1.5h-3.49a.75.75 0 0 0-.75.75v3.49h1.5V6.782A7.488 7.488 0 0 1 12 19.5V21a8.99 8.99 0 0 0 6.538-15.17z" class="cls-2" data-name="Trazado 2560"/>
    <path id="Trazado_2561" d="M6.893 17.475A7.488 7.488 0 0 1 12 4.5V3a9 9 0 0 0-6.459 15.267h-1.39v1.5h3.492a.75.75 0 0 0 .75-.75v-3.49h-1.5z" class="cls-2" data-name="Trazado 2561"/>
  </symbol>
  <symbol xmlns="http://www.w3.org/2000/svg" viewBox="0 0 24 24" id="roles">
    <path id="Trazado_2365" d="M21.66 10.167a1.937 1.937 0 0 0-1.621-.784h-.094v-4a2 2 0 0 0-2-2H4a2 2 0 0 0-2 2v13.782a.713.713 0 0 0 .265.511 1.878 1.878 0 0 0 1.688.945H16.5a3.484 3.484 0 0 0 3.075-2.251l2.267-6.222a2.141 2.141 0 0 0-.182-1.981zM3.5 5.63a.75.75 0 0 1 .75-.75H17.7a.75.75 0 0 1 .75.75v3.752h-1.961a.451.451 0 0 1-.394-.156L14.7 7a1.917 1.917 0 0 0-1.66-.854H8.683A3.5 3.5 0 0 0 5.608 8.4L3.5 14.174zm16.933 6.005l-2.266 6.217A2.032 2.032 0 0 1 16.5 19.12H3.953c-.231 0-.374-.075-.429-.234a.472.472 0 0 1-.024-.161 1.034 1.034 0 0 1 .07-.356L7.018 8.9a2.007 2.007 0 0 1 1.665-1.256h4.36a.472.472 0 0 1 .394.156l1.382 2.212a1.912 1.912 0 0 0 1.671.87h3.55a.477.477 0 0 1 .395.148.7.7 0 0 1 0 .6z" data-name="Trazado 2365" transform="translate(-2 -3.383)"/>
  </symbol>
  <symbol xmlns="http://www.w3.org/2000/svg" viewBox="0 0 24 24" id="municipios">
    <path id="Trazado_2254" d="M22 13.57a.978.978 0 0 0-.49-.86l-3.6-2.11V3a1 1 0 0 0-1-1h-10a1 1 0 0 0-1 1v7.66l-3.43 2.05a.986.986 0 0 0-.48.85V22h20zM5.915 20.5H3.5v-6.66l2.415-1.42zm10.5 0h-3.5V18h-2v2.5h-3.5v-17h9zm4.085 0h-2.585v-8.15l2.585 1.5z" class="cls-2" data-name="Trazado 2254"/>
    <path id="Rectángulo_416" d="M0 0H2V2H0z" class="cls-2" data-name="Rectángulo 416" transform="translate(8.915 5)"/>
    <path id="Rectángulo_417" d="M0 0H2V2H0z" class="cls-2" data-name="Rectángulo 417" transform="translate(12.915 5)"/>
    <path id="Rectángulo_418" d="M0 0H2V2H0z" class="cls-2" data-name="Rectángulo 418" transform="translate(8.915 9)"/>
    <path id="Rectángulo_419" d="M0 0H2V2H0z" class="cls-2" data-name="Rectángulo 419" transform="translate(12.915 9)"/>
    <path id="Rectángulo_420" d="M0 0H2V2H0z" class="cls-2" data-name="Rectángulo 420" transform="translate(8.915 13)"/>
    <path id="Rectángulo_421" d="M0 0H2V2H0z" class="cls-2" data-name="Rectángulo 421" transform="translate(12.915 13)"/>  
  </symbol>
</svg>