<svg xmlns="http://www.w3.org/2000/svg" id="prefix__plant" width="22.867" height="22.849" viewBox="0 0 22.867 22.849">
    <path id="prefix__Trazado_1886" fill="#97de3d" d="M22.867 9.573h-3.923a8.333 8.333 0 0 0-6.844 3.574V19.7h-1.336v-2.536a8.333 8.333 0 0 0-6.841-3.575H0c.094-.134.87-4.016 4.739-4.016a4.7 4.7 0 0 1 4.672 4.378 9.883 9.883 0 0 1 1.352 1.125V8.9a3.348 3.348 0 0 0-3.346-3.344H4.07v-.669a3.347 3.347 0 1 1 6.694 0 3.661 3.661 0 0 1-.067.669 5.516 5.516 0 0 1 .362.428 5.505 5.505 0 0 1 .375-.8 4.723 4.723 0 0 1 .736-.964 3.657 3.657 0 0 1-.067-.669 3.347 3.347 0 1 1 6.694 0v.669H15.45a3.348 3.348 0 0 0-3.35 3.345v3.494a9.888 9.888 0 0 1 1.352-1.125 4.694 4.694 0 0 1 4.672-4.378c3.883 0 4.632 3.856 4.739 4.016z" data-name="Trazado 1886" transform="translate(0 -.201)"/>
    <g id="prefix__Grupo_80" data-name="Grupo 80" transform="translate(11.434)">
        <path id="prefix__Trazado_1887" fill="#59c36a" d="M267.634 9.573h-3.923a8.333 8.333 0 0 0-6.841 3.575V19.7h-.67V5.181a4.722 4.722 0 0 1 .736-.964 3.655 3.655 0 0 1-.067-.669 3.347 3.347 0 0 1 6.694 0v.669h-3.347a3.348 3.348 0 0 0-3.347 3.347v3.494a9.888 9.888 0 0 1 1.352-1.125 4.694 4.694 0 0 1 4.673-4.378c3.883.001 4.632 3.857 4.74 4.018z" data-name="Trazado 1887" transform="translate(-256.2 -.201)"/>
    </g>
    <path id="prefix__Trazado_1888" fill="#704c55" d="M49.275 424.879a5.674 5.674 0 0 1-3.645-1.226 7.359 7.359 0 0 0-8.776 0 5.674 5.674 0 0 1-3.645 1.226H31.2v1.339h20.083v-1.339z" data-name="Trazado 1888" transform="translate(-29.809 -403.368)"/>
    <path id="prefix__Trazado_1889" fill="#5a344b" d="M266.242 426.217v-1.339h-2.008a5.674 5.674 0 0 1-3.645-1.226 7.024 7.024 0 0 0-4.389-1.452v4.016z" data-name="Trazado 1889" transform="translate(-244.767 -403.368)"/>
</svg>
